<?xml version="1.0" encoding="UTF-8" standalone="yes"?>
<!-- Created with sK1/UniConvertor (http://sk1project.org/) -->
<svg xmlns="http://www.w3.org/2000/svg" xmlns:xlink="http://www.w3.org/1999/xlink"
  width="960pt" height="1280pt" viewBox="0 0 960 1280"
  fill-rule="evenodd">
<g>
<g>
<path style="stroke:none; fill:#000000" d="M 577.5 153.1C 556.4 154.9 531.2 160.4 520.9 165.5C 517.1 167.4 512.5 169.4 510.7 169.9C 502.8 172.3 499.4 174 495.1 177.7C 490.6 181.5 482.9 187.1 470.1 195.7C 463 200.5 450.9 211.2 437.8 224.5C 429.9 232.4 426.3 237 419.8 246.9C 416.7 251.6 412 260.9 412 262.3C 412 263.1 410.9 265.3 409.6 267.3C 408.3 269.2 406.1 274.3 404.7 278.6C 403.3 283 400.8 290.4 399.1 295.2C 395.9 304.4 391.8 324.9 392 331.1C 392 333.1 391.5 336.1 390.9 337.6C 388.5 343.8 385.1 388.5 386.9 390.3C 387.6 391 387.6 391.9 386.8 393.3C 385.5 395.7 386.5 423.8 388.2 431C 388.7 433.5 389.3 437.3 389.5 439.5C 390.1 448.5 392.4 460 395.1 468.4C 396.7 473.3 398 477.9 398 478.7C 398 479.7 393.6 480 376.3 480C 335.9 479.9 324.2 480.7 291.1 486C 286.2 486.8 283.1 487.7 277.5 490C 276.4 490.5 272.8 491.5 269.5 492.3C 266.2 493.1 262 494.5 260.2 495.2C 257.6 496.3 255.6 496.5 251.2 495.7C 248.1 495.2 245.1 494.4 244.6 493.9C 244 493.4 242.8 493 241.9 493C 240.9 493 238.6 492.1 236.8 491.1C 234 489.5 214.1 484.9 196.5 481.9C 177.1 478.5 161.9 478.3 155 481.3C 144.4 485.9 142.2 487.3 135.3 494.1C 131.3 498 128 501.5 128 501.9C 128 502.4 127.2 504.2 126.3 506.1C 123.5 511.4 123.9 521.4 127.1 527.2C 129.6 531.8 136.4 540 137.6 540C 138 540 141.2 542.1 144.9 544.7C 151.8 549.7 152 549.8 156 553.1C 157.4 554.3 161.9 556.9 166 559C 171.8 561.9 176.2 565.4 185.2 574.2C 191.7 580.5 197 586.3 197.1 587.1C 197.1 587.9 198.7 590.5 200.5 593C 203.9 597.4 209.5 608.2 212.1 614.9C 212.8 616.7 214.1 619 215.1 619.9C 216 620.8 220.5 628.7 224.9 637.4C 236.7 660.3 244.2 671.3 256.4 683.1L 261.2 687.8L 258.5 695.2C 257 699.2 255.6 703.4 255.3 704.5C 254.4 708.4 249.8 722.5 248.9 724.2C 248.4 725.2 248 726.9 248 727.9C 248 729 247.6 730.1 247.1 730.4C 246.6 730.7 245.2 734.7 244 739.2C 242.8 743.8 241.4 748.2 240.9 749.1C 239.7 751.5 236.1 765 233.5 777C 232.2 782.8 230.5 790 229.6 793C 228.7 796 227.3 801.6 226.5 805.5C 225.7 809.3 224.3 815.4 223.5 819C 222.7 822.6 221.3 828.8 220.5 832.8C 219.7 836.8 218.9 840.4 218.6 840.8C 215.9 845.2 213.5 918.1 215.4 939C 217.3 959.8 217.3 958.5 214.8 959.7C 211.3 961.3 202.8 969.3 198.3 975.2C 187.8 989 188.1 1007.4 199.5 1037.5C 201.3 1042.4 204.2 1050.2 206 1054.8C 207.7 1059.4 210.6 1066.1 212.5 1069.8C 214.4 1073.5 217.3 1080 219 1084.4C 220.7 1088.7 224.3 1096.8 226.9 1102.4C 236.3 1122.1 239 1127.9 239 1128.6C 239 1128.9 241.9 1133.9 245.5 1139.6C 249.1 1145.3 252 1150.3 252 1150.7C 252 1151.2 253.4 1153.5 255 1155.9C 258.2 1160.6 258.8 1163 256.7 1163C 253.9 1163 241.3 1170 237.4 1173.6C 233 1177.8 228 1185.6 228 1188.4C 228 1189.3 229.5 1190.9 231.3 1192C 235 1194.3 244.3 1194.6 263 1193C 269.3 1192.4 279.2 1191.8 285 1191.5C 290.8 1191.2 296 1190.9 296.5 1190.8C 297.1 1190.7 300.5 1191.4 304 1192.3C 325.2 1197.6 344.8 1199.4 360.5 1197.6C 371.2 1196.3 380 1193.3 380 1191C 380 1190.4 380.7 1190 381.5 1190C 382.3 1190 383 1190.4 383 1190.8C 383 1192.3 391.4 1197.2 396.5 1198.7C 408 1202 419.2 1203.1 420.5 1201C 420.8 1200.4 422.6 1200 424.4 1200C 426.3 1200 432.4 1198.4 438.1 1196.4C 447.9 1192.9 448.7 1192.8 454 1193.9C 457 1194.5 464.1 1195.7 469.8 1196.6C 479.2 1198.1 480.8 1198.1 488.3 1196.7C 492.8 1195.8 498.8 1194.8 501.5 1194.4C 506.9 1193.7 519.1 1188.4 522.8 1185.2C 524.2 1183.9 525 1182 525 1180.1L 525 1177L 533.3 1177C 546.6 1176.9 552.9 1176 563 1172.5C 590.6 1163.1 595.6 1160.1 615 1141.4C 617.8 1138.7 620.5 1137 621.9 1137C 625.6 1137 640.4 1133.9 641.5 1132.9C 642 1132.4 643.5 1132 644.7 1132C 649.3 1132 673.2 1118.2 675.5 1114.2C 676 1113.2 677.3 1111.6 678.2 1110.5C 684.2 1103.5 687.8 1098.7 691.5 1093C 693.8 1089.4 696.4 1085.9 697.3 1085.1C 698.2 1084.4 699.5 1081.9 700.1 1079.6C 700.7 1077.4 702.2 1074.1 703.4 1072.5C 706.3 1068.6 708.6 1062.7 709.5 1056.5C 709.9 1053.7 710.8 1049 711.5 1046C 713.6 1037.7 715 1013.5 715.3 983.5C 715.4 960.3 715.1 954.1 713.2 939.5C 710.1 916.1 707.6 902.8 701.3 876.5C 698.1 862.6 689.2 837 677.1 806.5C 666.9 780.9 665.9 778.6 655.2 758C 650 747.8 641.9 732.1 637.2 723C 632.6 713.9 627.8 704.7 626.5 702.5C 618.5 688.3 614.6 681.9 606.1 668.8C 589.7 643.6 586.7 638.8 582.3 630.3C 574.8 615.9 559 574.2 559 568.9C 559 567.4 565.6 562.7 573.1 558.9C 575.5 557.6 580.6 554.6 584.3 552.3C 588.1 549.9 594.9 546.2 599.4 544.1C 613.8 537.4 619.7 530.2 621 517.5C 621.6 511.6 621.4 509.9 619.7 506.5C 618.6 504.3 617 501.9 616.1 501.2C 614.3 499.8 602.7 494 601.6 494C 601.3 494 599.1 493.1 596.7 492C 594.4 490.9 589.1 489.6 585 489.1C 580.9 488.6 573.1 487.6 567.7 486.9C 560.4 486 555.3 486 547.3 486.8C 541.4 487.4 536.3 487.7 535.8 487.4C 535.4 487.1 534.3 485.2 533.5 483.2C 532.6 481.2 531.2 478.1 530.5 476.5C 522.1 457.9 516.3 436.6 515.6 421.5C 515.4 417.1 517.4 397.9 518.9 389.6C 521.9 373.3 535.6 345.5 545.9 334.7C 551.2 329.1 561.1 323 569 320.5C 572 319.5 577.7 317.6 581.5 316.2C 592.7 312.3 616.2 312.1 623.8 315.9C 628.7 318.3 633.6 320.4 634.7 320.5C 635.9 320.5 644.1 327.5 653.1 336.1C 658.9 341.7 662 346.4 662 349.9C 662 351 662.4 352.1 662.9 352.5C 664.3 353.3 667.9 363.4 669.5 370.9C 670.2 374.5 671.1 385 671.4 394.1C 671.9 406.6 672.5 412.2 673.9 416.6C 676.2 423.4 680.2 433.3 681.1 434C 681.4 434.3 682.9 436.3 684.3 438.5C 688.7 445.5 702.6 458.9 707.7 461.2C 725.1 469 743.3 473.7 760 474.6C 782.3 475.9 804.4 470.6 815.9 461.2C 819 458.7 821.6 456.2 821.8 455.6C 821.9 455 823.4 453.6 825.1 452.5C 826.7 451.4 830.9 447.2 834.3 443.2C 837.7 439.2 842 434.3 843.8 432.2C 849.4 426.1 855.9 411 857.5 400.6C 858.3 395.6 859.3 389.5 859.9 387C 861.3 381.2 861.3 371.1 859.9 363.5C 859.4 360.2 858.5 355.2 858 352.5C 855.1 335.3 848.1 315.1 839.4 298.5C 837.4 294.6 834.8 289.7 833.8 287.5C 832.7 285.3 831 282.6 830.1 281.5C 829.1 280.4 827.4 277.8 826.2 275.7C 825 273.6 819.6 266.5 814.3 259.9C 808.9 253.3 802.8 245.6 800.7 242.7C 798.6 239.8 796.4 237 795.7 236.5C 793.6 234.7 784.7 224.7 781 220C 779.1 217.5 776.3 214.401 774.9 213C 768.1 206.5 765.2 204 764.3 204C 763.8 204 760 201.7 755.9 199C 751.9 196.2 745.1 191.6 741 188.901C 736.9 186.1 731.2 182.801 728.4 181.5C 725.6 180.301 722.9 178.7 722.6 178.1C 722.2 177.5 721.2 177 720.4 177C 719.6 177 716.9 176.1 714.5 175C 710.5 173.2 703.3 170.801 688.6 166.401C 686 165.701 682.7 165 681.4 165C 680.1 165 677.3 164.301 675.3 163.5C 668.4 160.901 645.7 156.1 632 154.5C 615.9 152.5 591.3 151.9 577.5 153.1zM 625.5 156.6C 634.6 157.1 646.3 158.8 652 160.5C 654.5 161.2 659.9 162.5 664 163.5C 668.1 164.5 672.6 165.7 674 166.3C 675.4 166.8 677.6 167.4 679 167.6C 683.6 168.2 699.5 172.3 700.5 173.2C 701 173.6 702.2 174 703.3 174C 704.3 174 708.1 175.3 711.7 177C 715.2 178.6 718.3 180 718.6 180C 718.8 180 720.8 181.2 722.9 182.6L 726.8 185.2L 725.3 190.3C 723.1 197.7 718.8 206.9 715.2 211.9C 713.4 214.3 712 216.8 712 217.3C 712 217.9 710 221.5 707.6 225.4C 705.2 229.3 701.3 236.1 699 240.5C 696.6 244.9 694.2 249.2 693.5 250C 692.8 250.8 690.8 254.6 689 258.5C 687.2 262.3 684.4 267.4 682.9 269.7C 681.3 272 680 274.2 680 274.6C 680 274.9 676.5 281.4 672.1 288.9C 667.8 296.4 663.3 304.7 662.1 307.5C 658.9 314.8 651.1 327 649.6 327C 648.9 327 647.1 325.6 645.5 324C 643.9 322.3 642.2 321 641.7 321C 641.2 321 638.8 319.6 636.3 318C 633.9 316.3 631.7 315 631.4 315C 631 315 629.4 314.3 627.7 313.6C 619.6 309.9 603.3 307.3 597.8 308.8C 594.3 309.8 594.2 309.7 593.7 306.6C 593.4 304.9 592 297.4 590.6 290C 589.2 282.6 587.2 271.4 586.1 265.2C 585 258.9 583.8 253.1 583.6 252.2C 582.5 248.8 578.1 221.1 577.1 211C 574.9 189.3 572.9 172.3 571.8 164.8C 571.1 160.5 571 156.7 571.4 156.3C 572.5 155.2 607.6 154.3 613.5 155.3C 616.3 155.8 621.7 156.3 625.5 156.6zM 446.7 223.7C 453.1 231.9 458.7 241.3 466.8 257.5C 467.6 259.1 470.2 263.2 472.5 266.5C 474.8 269.8 477.5 274.1 478.5 276C 479.5 277.9 480.6 279.7 480.9 280C 481.8 280.7 490 292.7 490 293.3C 490 294.2 506.1 319.2 507.7 320.8C 512.6 325.7 522 341.2 522 344.3C 522 344.9 522.7 345.8 523.5 346.4C 524.9 347.4 524.9 348 523.7 351C 522.9 352.9 521.9 357.2 521.5 360.5C 520.8 367 518.4 377.2 517 379.8C 516.3 381.3 513.6 393.1 512.8 398.5C 512.5 400.1 511.6 400.5 508.1 400.7C 503.4 401 484.7 398.2 469.5 395C 454.5 391.9 428 388.6 409 387.5C 402.7 387.1 395.8 386.4 393.8 385.9C 390.3 385 390 384.6 389.8 381.2C 389.8 379.2 389.7 376.8 389.8 376C 390.5 364.7 391.2 355.6 391.7 351.5C 392.1 348.7 392.4 346 392.5 345.5C 393.8 332.4 394.4 328.2 395.6 321.5C 397 313.5 403.2 289.1 405.2 283.5C 408.1 275.6 422.4 248 425.3 244.9C 427 243.1 429.7 239.5 431.3 237.1C 435 231.4 443.1 222 444.3 222C 444.9 222 445.9 222.8 446.7 223.7zM 186 484.1C 188.5 484.6 193.9 485.4 198 486C 214.3 488 236.9 493.5 241.7 496.6C 242.9 497.4 244.5 498 245.3 498C 246 498 247.4 498.6 248.4 499.3C 250.1 500.6 249.8 501.1 243.9 507.2C 234.7 516.5 226.8 525.6 224.5 529.6C 222 533.8 220.4 533.9 219.5 530.1C 218.7 526.2 208.7 515.9 203 513C 200.6 511.8 196.3 509 193.4 506.9C 190.6 504.7 188 503 187.5 503C 187.1 503 183.7 501.5 180.1 499.7C 173.7 496.6 173.1 496.5 161 496.5C 150.1 496.5 148 496.8 144.5 498.7C 138.2 502 136 502.5 136 500.3C 136.1 498.2 139.3 494 140.9 494C 141.5 494 142 493.4 142 492.6C 142 491.1 156.8 483.4 161 482.7C 164.7 482.1 180.9 483 186 484.1zM 529 487.2C 529 488.4 527.9 489.1 525.3 489.5C 523.2 489.8 520.8 490.5 519.9 491C 519 491.5 516.5 492.2 514.5 492.6C 512.4 493 509.5 493.9 508.1 494.6C 506.7 495.4 504.9 496 504.2 496C 503.5 496 501 496.9 498.8 498C 496.5 499.1 493.9 500 493.1 500C 490.4 499.9 476.6 492.4 477.8 491.6C 478.4 491.3 484.6 490.3 491.7 489.5C 498.7 488.7 507 487.5 510 487C 522.4 484.8 529 484.9 529 487.2zM 572.6 492C 588.6 494.2 594.9 495.9 604.1 500.5C 612.2 504.6 616 509.2 616 514.9C 616 520.4 614.7 520.7 611.6 516C 610.2 513.8 608.4 512 607.6 512C 606.9 512 605.2 511.1 603.8 510.1C 599.4 506.6 587.5 503.7 580.1 504.3C 571.9 505 552.4 511.3 549 514.4C 547.6 515.7 544 518.5 541 520.7C 538 523 533.4 526.8 530.7 529.4C 528.1 531.9 525.6 534 525.3 534C 524.9 534 523.3 535.4 521.8 537.2C 519.9 539.5 519 540 518.7 539C 515.1 527 512.3 519.6 509.8 515.7C 508.2 513.1 506.4 511 506 511C 505.6 511 504.1 509.2 502.6 507L 500 503L 502.8 501.7C 512.9 496.6 524.4 493.6 541.5 491.6C 556.8 489.8 557 489.8 572.6 492zM 462.5 506.4C 471.5 508.1 484.2 511.5 487.4 513.2C 491.3 515.3 500.8 522.9 503.5 526.2C 504.9 528 506.8 530.3 507.6 531.3C 508.4 532.2 509 533.5 509 534C 509 534.6 509.5 535 510 535C 510.6 535 511 536 511 537.2C 511.1 539.5 513.1 543.8 516.2 548.1C 518 550.6 521 566.5 521 573.5C 521 578 517.1 599.2 516.1 600C 515.3 600.6 512.4 607.5 511.4 611C 510 616.2 499.6 636.6 496.1 640.9C 491.1 647.3 485.1 653.8 481.1 657.4C 479.2 659.1 475.7 662.4 473.3 664.7C 471 667 466.1 670.3 462.5 672.1C 458.9 673.8 456 675.6 456 676C 456 676.9 437.9 685 435.8 685C 433.9 685 430 689.2 430 691.2C 430 693.6 432.1 693.5 434.3 691C 435.2 689.9 436.6 689 437.4 689C 440.7 689 451.8 684.7 456.5 681.6C 462.9 677.3 468.8 674.5 469.6 675.2C 469.9 675.6 471.3 680.9 472.6 687.2C 475.1 699 479.4 714.2 481.1 717.2C 481.6 718.2 482 719.5 482 720.1C 482 720.6 483.1 723.5 484.4 726.4C 485.8 729.3 487.3 733.5 487.9 735.6C 488.5 737.8 489.7 740.6 490.7 741.9C 491.6 743.3 494.1 747.7 496.3 751.8C 502.6 763.7 519.9 786 531.4 796.9C 534.1 799.4 536.8 802.1 537.4 802.8C 538 803.5 550.3 816 564.6 830.5C 591 857.2 592 858.4 607.5 882.4C 614.3 892.9 625.2 914.5 630.5 928C 632.6 933.2 634.6 937.9 635 938.5C 636.7 940.7 643.9 970.1 646.5 985.5C 648.8 999.1 648.6 1005 644.9 1035C 644.3 1039.7 643.4 1047.1 642.9 1051.5C 642.4 1055.9 641.8 1060.8 641.6 1062.5C 638.1 1085.5 637.1 1090.4 634.5 1096.5C 633.8 1098.1 632.6 1101.5 632 1104C 629.1 1115 619.3 1131.6 614.6 1133.8C 613.1 1134.5 612.3 1135.5 612.6 1136.3C 613.2 1138 602.4 1148.3 594.8 1153.3C 590 1156.5 586.8 1158.1 573.5 1164.1C 559.5 1170.4 549.6 1172.6 532.1 1173.4L 520.7 1174L 516.7 1170.4C 514.5 1168.4 510.3 1165.7 507.3 1164.4C 502.6 1162.3 500.5 1162 489.7 1162C 483 1162.1 475.6 1162.5 473.3 1162.9C 471 1163.4 468.9 1163.5 468.6 1163.3C 468.4 1163 468.8 1161 469.6 1158.7C 470.3 1156.4 471.7 1151.8 472.6 1148.5C 473.5 1145.2 475.9 1136.9 478.1 1130C 482 1117.2 487.2 1098.2 489.6 1087.5C 492.7 1073.9 499.1 1036.8 500.5 1024C 500.8 1021 501.5 1016 502.1 1013C 502.6 1010 503.7 998 504.5 986.5C 505.6 969.4 506.4 963.3 508.9 954C 512.4 940.5 513.4 938.1 518 931.7C 526.4 920 541.6 915.9 552.1 922.5C 557.1 925.7 560 925.8 560 922.6C 560 920.7 558.9 919.8 554.2 917.7C 544.9 913.5 541.2 913.3 531.4 916.5C 523.4 919.1 517 922.9 517 925.1C 517 925.6 515.4 928.1 513.4 930.7C 511.4 933.4 509.2 936.8 508.7 938.5C 507.7 941.2 507.4 940 505.8 928C 504.8 920.6 503.7 911.5 503.4 907.8C 502.7 900.5 500.9 897.6 498.6 900.1C 497.6 901.2 497.6 903.7 499.1 913.5C 502.3 935.2 501.4 990.3 497.4 1014.5C 496.6 1019.4 495.5 1026.9 495 1031C 492.8 1049.6 484.7 1089.9 480 1105.5C 479.5 1107.1 478.2 1112.1 477 1116.5C 475.8 1120.9 473.3 1129.2 471.5 1135C 469.7 1140.8 467.4 1148.8 466.4 1152.8C 464.8 1159.4 464.4 1160.1 462.5 1159.5C 454.1 1156.9 445.9 1155.1 439.8 1154.5C 435.8 1154.1 430.6 1153.4 428.3 1152.9C 422.4 1151.7 406.2 1154.1 398.1 1157.4C 394.6 1158.8 391.5 1159.8 391.3 1159.6C 391 1159.4 392 1156.7 393.4 1153.7C 394.8 1150.8 396 1147.6 396 1146.7C 396 1145.8 396.4 1144.1 396.9 1142.8C 397.4 1141.5 398.9 1136.4 400.4 1131.5C 401.8 1126.5 404.1 1118.4 405.6 1113.5C 407 1108.5 409.3 1101.6 410.6 1098C 413.3 1090.6 419.7 1068.8 421.1 1062.1C 426.2 1037.8 427.5 1014.2 426.1 977C 425.5 961.3 424.5 944 424 938.5C 419.5 893.9 417.4 878.9 413.1 861.7C 411.3 854.1 409.7 851 408.4 852.3C 407.9 852.8 408.6 857.6 410.4 866.5C 410.7 867.6 411.6 873.9 412.5 880.5C 413.4 887.1 414.5 894.4 415.1 896.8C 415.6 899.1 416 902.6 416 904.5C 416 906.4 416.4 910.1 417 912.7C 418.4 919.8 420.8 959 421.5 987C 422.1 1011.8 420.9 1044.6 419.1 1049.3C 418.6 1050.7 417.4 1055.3 416.5 1059.7C 414.7 1068.7 412.9 1075.1 405.5 1098C 400.3 1113.9 399.3 1117.2 395.5 1130.5C 391.1 1146 384.7 1162 382.8 1162C 382.4 1162 381.7 1163.8 381.4 1166C 381 1168.2 380.4 1170 379.9 1170C 378.5 1170 374.4 1163.9 370.5 1156C 368.4 1151.9 365.4 1147 363.9 1145.2C 362.3 1143.4 361 1141.4 361 1140.8C 361 1140.3 359.4 1136.4 357.5 1132.3C 355.6 1128.2 354 1124.7 354 1124.5C 354 1123.9 346.1 1106.7 344.5 1103.8C 343.7 1102.4 343 1100.6 343 1099.9C 343 1099.2 342.4 1097.9 341.6 1097.1C 340.4 1095.6 337.9 1087.4 330.4 1059.5C 323.5 1033.6 322 1027.1 321 1019.9C 320.5 1015.8 319.6 1010.9 319.1 1009C 318.6 1007.1 317.8 1003 317.5 1000C 317.2 997 316.5 993.1 316 991.5C 311.5 975.9 308.9 914 311 871.5C 312.3 846.5 312.1 840 310.1 840C 307.6 840 307.1 849.3 306.7 905C 306.2 955.8 308.3 978.5 317.5 1026.5C 319.7 1038 320.6 1041.4 321.8 1043.7C 322.5 1044.9 323 1046.9 323 1048.1C 323 1049.3 323.9 1053.3 325 1056.9C 326 1060.5 327.9 1067.3 329 1072C 332.4 1085.4 337.1 1100 340.1 1106C 344.1 1114 349.3 1125.6 352 1132.5C 353.3 1135.8 355 1139.2 355.6 1140C 356.3 1140.8 357.2 1142.8 357.6 1144.4C 358 1146 359.6 1149.3 361.2 1151.6C 362.7 1153.9 364 1156.3 364 1156.9C 364 1158.2 360.8 1158.4 359.5 1157.1C 358.9 1156.7 356.2 1155.5 353.3 1154.5C 348.5 1152.8 347 1152.7 334.8 1153.9C 318.3 1155.4 313.8 1156.4 307.7 1159.6C 304.7 1161.2 302 1162 300.7 1161.6C 298.7 1161.1 288 1146.7 288 1144.5C 288 1144.2 286.6 1141.8 284.9 1139.4C 279.3 1131.3 269.4 1108.9 262 1088C 258 1076.7 253.2 1064.2 251.4 1060.1C 249.5 1056 248 1052.3 248 1051.8C 248 1051.3 246.9 1048.1 245.7 1044.7C 244.4 1041.3 242.5 1036 241.6 1033C 240.6 1030 239.2 1025.9 238.5 1024C 237.8 1022.1 235.5 1015.1 233.5 1008.5C 231.6 1001.9 229.5 995.1 229 993.5C 224.7 979.1 221.6 960.6 220.5 942.5C 219.1 919.3 220.4 858.9 222.5 847C 223.9 838.9 228.2 818.8 230.4 809.5C 231.8 804 233.8 795.2 235 790C 236.2 784.8 237.7 778.2 238.5 775.5C 239.2 772.7 240.4 768 241.1 765C 241.7 762 242.8 757.9 243.5 756C 244.9 752.1 247.4 744.2 255 720C 262.5 696.1 264.1 692 265.7 692C 266.5 692 269 693.4 271.1 695.1C 273.3 696.8 277.1 698.8 279.5 699.6C 282 700.3 285.5 701.6 287.2 702.4C 289 703.2 294.1 705 298.5 706.4C 302.9 707.8 308 709.5 309.8 710.1C 311.6 710.7 314.8 710.9 317 710.5C 320.5 709.9 320.8 709.7 319.7 707.9C 318.4 705.7 314 704 309.8 704C 305.8 704 290.3 698 274.4 690.3C 267.2 686.8 250.3 670.2 243.5 659.8C 242 657.4 239.9 654.4 239 653C 235.4 647.6 220 615.2 218.1 609C 214.2 596.2 212.7 586.1 213.4 577.6C 213.8 573.2 214.4 569.1 214.9 568.6C 215.3 568 216.3 565.2 217 562.5C 219.3 553.9 223.6 545.7 229 539.6C 235.3 532.4 244.1 525 246.3 525C 247.2 525 248.2 524.5 248.5 524C 250.4 520.9 272.6 515.6 288 514.6C 295.9 514 299.8 514.4 311 516.5C 318.4 517.9 327.2 519.5 330.5 520C 333.8 520.6 338.6 521.7 341.2 522.5C 347.1 524.4 352.2 524.4 363 522.5C 372.9 520.7 373.8 520.5 380.5 518C 404.1 509.3 415.6 506.7 437.2 505.1C 449.4 504.1 450.5 504.2 462.5 506.4zM 556 576.5C 556.7 578.7 557.6 580.9 558 581.5C 558.5 582 559.1 584.5 559.5 587L 560.1 591.5L 555.3 594.2C 552.7 595.7 548.1 598.1 545.3 599.5C 542.4 601 540 602.6 540 603.1C 540 603.6 539.5 604 538.9 604C 538.3 604 534.8 605.4 531.2 607.1C 520.3 612.2 517 613.2 517 611.4C 517 607.4 523.2 596.8 528.7 591.3C 535.5 584.7 544.7 576.7 546.4 576.1C 547 575.9 547.7 575.4 548 575C 549.3 573.4 553.5 571.1 554.1 571.8C 554.5 572.2 555.3 574.3 556 576.5zM 610 683.2C 611.4 685.4 613.3 688.5 614.2 689.9C 615.2 691.3 616.3 693.2 616.7 694C 617 694.8 618.2 696.7 619.2 698.3C 620.3 699.8 623 704.5 625.2 708.8C 627.5 713 630.8 719.2 632.6 722.5C 634.5 725.8 638.5 733.7 641.6 740C 644.7 746.3 647.5 751.7 647.9 752C 648.5 752.5 652 759.7 652 760.5C 652 760.8 650.8 761 649.3 761C 647.5 761 644.4 762.6 640.8 765.5C 637.6 768 634.4 770 633.5 770C 632.7 770 632 770.4 632 770.9C 632 771.4 631.2 772.1 630.2 772.4C 629.2 772.8 625.7 774.7 622.4 776.6C 619.2 778.6 613.4 781.9 609.5 784C 594.8 791.8 579.2 800.3 571.5 804.7C 567.1 807.3 561.3 810.1 558.5 811.1L 553.6 813L 549.2 808.7C 546.8 806.4 544.2 803.1 543.4 801.5C 542.6 799.8 540.4 796.7 538.4 794.5C 536.4 792.3 533.1 787.9 530.9 784.8C 528.8 781.7 526.4 778.7 525.7 778.3C 524.9 777.9 522.6 774.3 520.5 770.5C 518.4 766.6 515.5 761.2 514 758.5C 508.1 747.7 505.8 742.9 506.1 742.6C 509.6 739.9 524 730.9 532.5 726C 538.6 722.5 545.6 718.2 548.3 716.4C 550.9 714.5 553.4 713 554 713C 554.5 713 555.3 712.4 555.7 711.6C 556.1 710.9 557.6 709.7 559 709C 561.2 707.9 568.1 703.5 581.9 694.4C 593.5 686.8 598.7 683.8 601.2 683.3C 602.8 683 604.5 681.9 605.1 680.9C 606.5 678.2 607.2 678.5 610 683.2zM 486 712.3C 487.1 714.6 489.8 719.9 492.1 724C 494.3 728.1 497.5 734 499.1 737C 500.8 740 502.7 743.6 503.5 745C 504.3 746.4 505.5 748.8 506.3 750.5C 508.9 756 517.2 771.5 518.2 772.7C 518.7 773.4 519 774.4 518.8 775C 518.1 777.3 504.5 758.3 496.9 744.3C 495.4 741.4 493.6 738.3 493.1 737.3C 492 735.4 482 708.4 482 707.4C 482 705.9 484.2 708.6 486 712.3zM 698.1 880.7C 698.7 882.3 700.7 890.7 702.5 899.5C 704.4 908.3 706.6 918.9 707.5 923C 708.4 927.1 709.1 932.3 709.1 934.5C 709 936.7 709.4 941.4 709.9 945C 710.4 948.6 711.1 953.8 711.5 956.7L 712 961.8L 704.3 962.5C 700 962.8 693.4 963.6 689.5 964.2C 685.7 964.8 680.9 965.2 678.9 965.1C 676.9 965 669.3 965.9 661.9 966.9C 654.6 968 648.4 968.8 648.3 968.6C 648 968.3 646.4 961 645 953.9C 644.5 951.3 643.4 947.1 642.6 944.5C 640.6 938.9 626.8 907 624 901.9C 621.6 897.5 621.5 896.6 623.5 897.4C 624.3 897.7 629.8 896.9 635.8 895.5C 641.7 894.2 651.7 892.2 658 891C 664.3 889.8 671.3 888 673.5 887C 675.7 886 680 884.5 683 883.6C 686 882.8 690.3 881.2 692.5 880C 694.6 878.9 696.6 878 696.7 878C 696.9 878 697.5 879.2 698.1 880.7zM 218.9 970.2C 219.6 973.7 220.6 978.7 221.2 981.5C 222.4 987.3 227.5 1004.7 229.6 1010.3C 230.4 1012.3 231 1014.8 231 1015.6C 231 1016.5 231.6 1018.6 232.3 1020.3C 233.1 1022.1 234.5 1026 235.4 1029C 236.4 1032 237.5 1035.4 237.9 1036.5C 238.4 1037.6 239.5 1041 240.5 1044C 241.5 1047 242.7 1050 243.1 1050.5C 243.5 1051.1 244.6 1053.8 245.5 1056.5C 246.5 1059.3 249.2 1066.5 251.6 1072.7C 254 1078.8 256 1084.7 256 1085.7C 256 1086.7 256.7 1088.8 257.5 1090.4C 258.3 1091.9 259 1093.7 259 1094.4C 259 1095 259.6 1096.7 260.4 1098.2C 261.2 1099.6 262.3 1102.5 263 1104.6C 264.8 1110.1 282.3 1145.3 287 1153C 291.8 1160.7 292.1 1160.4 276.9 1161.4L 266.4 1162.1L 262.2 1156.5C 259.9 1153.4 258 1150.6 258 1150.2C 258 1149.7 255.5 1145.4 252.4 1140.4C 249.3 1135.5 245.6 1129 244.3 1126C 242.9 1123 239 1114.6 235.4 1107.5C 229.9 1096.2 223.8 1082.3 219.6 1071.2C 218.9 1069.4 217.8 1067.4 217.2 1066.8C 216.5 1066.1 216 1065 216 1064.3C 216 1063.5 214.7 1060.4 213.1 1057.2C 211.5 1054.1 209.5 1049.2 208.7 1046.5C 207.8 1043.7 206.2 1039.2 205.1 1036.5C 204 1033.7 202.2 1028.1 201 1024C 199.9 1019.9 198.3 1014.3 197.5 1011.6C 194.7 1002.4 196.2 986.9 200.6 980.3C 202.8 976.9 215.7 964 216.8 964C 217.3 964 218.3 966.8 218.9 970.2zM 661.5 1079.7C 664.8 1080.5 670.2 1082 673.5 1083.1C 676.8 1084.1 681.6 1085.4 684.3 1086.1C 690.8 1087.7 690.6 1088.2 679.8 1102.2C 676.7 1106.2 672.4 1111.1 670.3 1113.1C 662.9 1120 646.3 1127.5 633 1129.9C 630 1130.4 626.7 1131.2 625.8 1131.5C 623.1 1132.6 623.6 1130 626.8 1125.4C 629.1 1122.2 634.5 1109.7 638.5 1098.5C 639.8 1094.7 641.8 1086.5 642.4 1081.8L 643.1 1077.2L 649.3 1077.6C 652.7 1077.9 658.2 1078.8 661.5 1079.7z"/>
<path style="stroke:none; fill:#000000" d="M 428.5 535.6C 425.8 536.9 421.9 539 420 540.1C 418.1 541.3 414.5 543.3 412 544.6C 409.5 545.8 406.4 548 405.1 549.4C 403.7 550.8 402.3 552 401.9 552C 401.4 552 399.1 553.4 396.8 555C 394.4 556.7 390.3 559.6 387.5 561.4C 384.8 563.2 381.4 565.7 380 567C 378.6 568.2 376.8 569.7 375.9 570.4C 373.2 572.4 371 576.4 371 579.3C 371 582.6 377.2 591.7 386.1 601.5C 389.3 605.1 392 608.5 392 609C 392 610.4 410.3 628.3 418.9 635.4C 428.2 642.9 431.4 643.4 438.1 637.9C 440.5 635.9 443.6 633.7 445 633C 446.4 632.3 452.2 628.3 458 624.1C 463.8 619.9 471.2 614.7 474.5 612.5C 483.8 606.5 498.2 594.7 502.1 589.9C 504.1 587.4 506.4 582.8 507.5 579.1L 509.4 572.8L 507 568.3C 504.5 563.5 501.3 560.7 494 556.7C 469.1 543.1 451.1 535.2 443.1 534.4C 440 534.1 436.6 533.7 435.5 533.5C 434.4 533.3 431.3 534.2 428.5 535.6zM 465 571.4C 469.3 572.1 471.6 573 471.8 574C 472.2 576.1 465.2 587.7 461 591.8C 452.9 599.8 448.2 602.8 441 604.4C 433.9 606 424.6 605.7 423.4 603.9C 423.1 603.4 422.3 603 421.5 603C 419.4 603 413.1 598.7 413 597.2C 413 596.5 411.5 594.5 409.7 592.7C 405.5 588.6 402 583.6 402 581.7C 402 579.8 405.4 577.6 412.2 575C 419.1 572.4 419.9 572.5 419.8 575.8C 419.6 581.8 422.1 585.4 428.7 589C 435 592.3 439.4 591.4 446.6 585.3C 449.3 583 451.6 578.5 452.5 573.7C 453.3 569.5 453.8 569.4 465 571.4z"/>
<path style="stroke:none; fill:#000000" d="M 265.5 540.7C 263.9 541 261.6 541.9 260.5 542.9C 259.4 543.8 257.3 545.2 255.8 545.9C 254.4 546.7 249 551.2 243.8 556.1C 238.7 561 234.3 565 234 565.1C 233.2 565.2 226.3 574.4 224.6 577.8C 222.3 582.2 220.6 594.4 221.9 596.9C 222.5 598 223 599.7 223 600.7C 223 602.8 229 612.8 234 618.9C 238.2 624.1 248.2 634 249.2 634C 249.6 634 251.4 635.4 253.2 637.1C 259.9 643.3 267.8 644.3 274.5 639.6C 277.7 637.4 292.2 626 293 625C 293.3 624.7 295.5 623 298 621.2C 300.5 619.4 304.7 615.4 307.5 612.2C 314.1 604.5 331.9 587 333 587C 333.5 587 334.8 585.3 335.8 583.1L 337.7 579.2L 334.1 575.8C 327 569.1 312.9 560 309.6 560C 309.1 560 307.9 559.4 307.1 558.7C 306.2 557.9 301.5 555.6 296.5 553.5C 291.6 551.3 286.4 548.9 285 548C 279.6 544.6 278.4 543.9 274.2 542C 271.8 540.9 269.5 540.1 269.2 540.1C 268.8 540.2 267.2 540.5 265.5 540.7zM 298.5 581.2C 301 581.9 303 582.8 303 583.3C 303 585.3 293.7 598.8 290.1 602C 283.3 608 270.7 612.6 262.2 612.1C 255.1 611.7 244.1 604.9 242.5 599.9C 242.1 598.7 239.8 595.1 237.3 591.9C 234.9 588.7 233.1 585.6 233.4 585.2C 234.1 584.1 247.9 581.6 250.4 582.1C 251.8 582.4 252.2 583.7 252.5 587.7C 253 594.5 254 596.2 259.4 599.4C 266.3 603.4 270.7 602.9 280.1 596.8C 285.5 593.2 287.5 589.3 286.8 583.4C 286.4 580.1 286.5 580 290.2 580C 292.3 580 296 580.5 298.5 581.2z"/>
<path style="stroke:none; fill:#000000" d="M 342.5 592.3C 340.3 594.1 336.9 597 335 598.9C 333.1 600.7 329.5 603.5 327 605.1C 324.5 606.6 321.2 609.3 319.6 611C 318.1 612.7 315.3 614.8 313.5 615.8C 306.7 619.4 286 639.1 286 642C 286 642.4 285.1 643.5 284 644.5C 282.9 645.5 282 647 282 647.9C 282 648.8 281.3 650.8 280.5 652.3C 279.4 654.5 279.3 656.2 280.1 660.8C 281.2 666.9 287.4 681 289 681C 289.6 681 290 681.7 290 682.5C 290 683.3 290.4 684 290.8 684C 291.2 684 294.7 686 298.4 688.5C 302.2 691 305.9 693 306.7 693C 307.4 693 309.2 693.7 310.5 694.6C 312.6 696 315.5 696.1 331.2 695.7C 361.2 694.7 369 692.8 378.1 683.8C 392.4 669.7 403 657.8 403 655.7C 403 654.4 403.5 652.9 404.2 652.2C 406 650.4 405.5 641.6 403.4 637.6C 401.7 634.5 377.8 608.7 365.5 596.8C 356.4 587.9 349.6 586.6 342.5 592.3zM 348.2 625.1C 360.6 627 360.2 626.8 359 628.9C 358.5 630 354.5 633 350.1 635.7L 342.2 640.5L 341.7 646.5C 341.2 652.2 341.3 652.6 344.2 655.2C 348 658.5 354.2 659.5 361.8 658C 369.6 656.4 374.9 653.1 381.2 646C 388.9 637.2 392.1 638.3 388.6 648.5C 386.1 655.9 368.7 664.6 356.5 664.4C 349.7 664.4 341.6 661.3 337.9 657.4C 335.5 654.9 330.7 654.1 329.4 656.1C 329.1 656.7 326 658.5 322.6 660.1C 314.2 664.1 303.9 664.2 298 660.5C 294 658 290.2 653.4 291.3 652.4C 291.6 652 294.4 653.2 297.5 655C 302.9 658.1 303.6 658.2 310.2 657.6C 318.2 656.9 322.1 655.3 326.8 651C 331.5 646.8 331.3 642.4 326.3 638.4C 318.9 632.7 314.9 628.7 315.7 627.9C 316.5 627.1 333.1 624.3 338.2 624.1C 339.7 624.1 344.2 624.5 348.2 625.1z"/>
<path style="stroke:none; fill:#000000" d="M 384.5 704.7C 379.1 705.5 369.8 705.7 355.5 705.3C 337.1 704.8 334.3 704.9 333.2 706.3C 331.2 708.7 334.4 709.9 341.4 709.4C 344.6 709.2 351.9 709.4 357.6 709.9C 374.3 711.4 402 707.9 402 704.3C 402 702.8 396.6 702.9 384.5 704.7z"/>
</g>
</g>
</svg>