<?xml version="1.0" encoding="UTF-8" standalone="yes"?>
<!-- Created with sK1/UniConvertor (http://sk1project.org/) -->
<svg xmlns="http://www.w3.org/2000/svg" xmlns:xlink="http://www.w3.org/1999/xlink"
  width="835pt" height="399pt" viewBox="0 0 835 399"
  fill-rule="evenodd">
<g>
<g>
<path style="stroke:none; fill:#ffffff" d="M 456.3 30.6C 456 31.4 456.7 36 457.8 40.8C 458.9 45.6 460.1 51.3 460.5 53.5C 461.7 61.7 462.1 62.7 464.6 63.9C 466 64.5 467.4 65 467.7 65C 468 65 467.9 59.3 467.5 52.2C 467.1 45.2 466.7 38 466.6 36.2C 466.5 33.1 466.1 32.6 461.7 31C 457.6 29.4 456.8 29.4 456.3 30.6z"/>
<path style="stroke:none; fill:#ffffff" d="M 430.6 32.3C 428.3 34 429.2 35.9 436.4 44.6C 439.2 48 443.5 53.3 445.9 56.4C 450.3 61.9 451.3 62.6 454.4 61.4C 457 60.4 456.3 58.1 450.5 49.6C 438.1 31.3 435.3 28.8 430.6 32.3z"/>
<path style="stroke:none; fill:#ffffff" d="M 410.7 45.4C 409.2 46.6 408 48.3 408 49.2C 408 50.2 411.2 52.8 415.8 55.7C 423.3 60.3 429.3 64.5 435.5 69.6C 437.2 70.9 439 72 439.6 72C 440.7 72 445 66.7 445 65.3C 445 64.4 424.6 49.7 418 45.9L 413.5 43.2L 410.7 45.4z"/>
<path style="stroke:none; fill:#ffffff" d="M 480 49.8C 478.7 52.9 475.8 58.5 473.7 62.2C 470.1 68.4 469.9 69.1 471 72.4C 471.6 74.4 472.5 76 473 76C 474.2 76 489 52.4 489 50.4C 489 48.7 485 44 483.7 44C 483 44 481.4 46.6 480 49.8z"/>
<path style="stroke:none; fill:#ffffff" d="M 644.5 51.5C 641.7 52.7 636.4 54.3 632.7 54.8C 622.6 56.4 616 61.3 610.4 71.5C 605.9 79.7 603.2 82.7 597.6 85.3C 592.9 87.5 584 95.9 584 98.1C 584 99.4 575.8 104.7 570.9 106.6C 568.5 107.6 564.5 109.7 562.1 111.4C 559.7 113.1 554.7 116.5 551.1 119C 543.2 124.4 526 140.7 526 142.8C 526 143.9 526.8 143.6 528.9 141.9C 549.8 124.8 550.9 124.1 571.5 115.2C 592 106.4 615.3 102.8 627.9 106.6C 637 109.3 644 118.1 647.4 131.1C 648.7 136.2 648.6 143.5 647 156.8C 647 157 645 158 642.5 159.1C 639.4 160.5 636.3 161 633.2 160.8C 626.9 160.4 626.7 162.1 632.8 164.5C 639.4 167.2 645.6 172.5 648.5 178.1C 649.8 180.6 652.6 183.9 654.7 185.5C 656.8 187 660 189.7 661.7 191.3C 666.8 196 666.8 193.6 661.8 187.8C 656.6 181.6 656.6 181.9 654 167.5C 651.3 152.7 651.4 144.9 654.4 135.4C 656.6 128.5 656.7 127.5 655.5 124C 654.7 121.9 653.3 118.9 652.4 117.5L 650.6 114.8L 656.8 108.8C 660.2 105.5 663 102.4 663 101.9C 663 101.4 661.1 101 658.7 101C 652.6 101 648.6 99.5999 643.8 95.7C 641.4 93.8 638.1 91.4999 636.3 90.5999C 634.6 89.8 630.9 86.8999 628 84.3C 623.9 80.5 622.7 78.5999 622 75.2C 621 69.4 623.4 64.8 628.2 63.5999C 633.2 62.3999 636.5 63.4999 640.2 67.7C 648.6 76.9999 648.8 77.0999 652.2 76.8C 654.6 76.5999 656 75.7 657.5 73.3C 659.4 70.2 659.7 70.0999 665.4 70.3C 670.7 70.5 671.5 70.2 672.5 68.3C 673.2 67 674 66.4 674.6 66.9C 675.1 67.4 676.5 68.1 677.8 68.5C 679.7 69 680 68.8 680 66.7C 680 61.4 670.7 52.1 663.2 50C 657.3 48.4 650 48.9 644.5 51.5z"/>
<path style="stroke:none; fill:#ffffff" d="M 398.3 64.3C 389.5 77.5 386.3 93.9 390.8 102.6C 396.2 113 405 116.2 416.3 112C 423.7 109.2 430.7 102.3 434.8 93.5C 436.7 89.6 438.5 85.8 438.9 85C 439.9 83.1 439.2 81 437.6 81C 436.9 81 430.1 77.1 422.4 72.4C 400.9 59.1 401.6 59.4 398.3 64.3z"/>
<path style="stroke:none; fill:#ffffff" d="M 490 68.1C 488.6 69.2 485 71.8 482 74C 474.7 79.1 469.7 83.6 469.3 85.2C 469.2 85.9 468.8 87.7 468.4 89.2C 467.7 92.3 469 92.9 471 90.5C 471.7 89.7 472.6 89 473.1 89C 473.6 89 478.6 87 484.2 84.5L 494.5 80L 494.5 73.3C 494.5 69.7 494.1 66.5 493.5 66.4C 493 66.2 491.4 67 490 68.1z"/>
<path style="stroke:none; fill:#ffffff" d="M 627.2 69.6C 624 71.8 624.5 74.6 628.7 77.5C 630.8 78.9 632.9 80 633.4 80C 633.9 80 635.7 81 637.4 82.3C 644 87.3 645.8 86.3 641.6 80.1C 640.3 78.1 638 74.6 636.6 72.2C 633.7 67.6 631.1 66.8 627.2 69.6z"/>
<path style="stroke:none; fill:#ffffff" d="M 656.1 78.1C 650 82.8 649.1 84.4 651 87.7C 653.3 91.7 658.5 94.4 664.2 94.4C 669.5 94.4 671.8 92.7 669.8 90.2C 668.5 88.7 670.2 87 673.1 87C 675.6 87 676.9 84.8 676 82.4C 674.8 79.2 669.3 75.8 664.6 75.3C 661 74.9 659.8 75.3 656.1 78.1zM 665.5 84C 667.2 85.8 667.2 86.1 665.6 88.5C 663.5 91.7 660.7 91.7 659 88.5C 657.8 86.3 657.9 85.8 659.5 84C 661.8 81.5 663.2 81.5 665.5 84z"/>
<path style="stroke:none; fill:#ffffff" d="M 661 86.5C 661 87.5 661.7 88 662.8 87.8C 664.9 87.4 664.7 85.6 662.6 85.2C 661.6 85 661 85.5 661 86.5z"/>
<path style="stroke:none; fill:#ffffff" d="M 678 78.7C 678 79.2 678.9 80.6 680 82C 681.1 83.4 682 85.1 682 85.7C 682 86.4 682.5 87 683 87C 684.4 87 684.2 93.2 682.7 95.1C 682 96 680.5 97 679.3 97.4C 677.5 98 677.2 98.6 677.6 101C 678.1 103.2 677.7 104.1 676.1 105.2C 672.7 107.3 673.6 108 679.8 108C 683.5 108 686.4 107.4 688 106.3C 692.6 103.3 697 98.5999 697 96.9C 697 95.9 693.4 91.9 689 87.9C 684.6 83.9 681 80 681 79.3C 681 78.5999 680.3 78 679.5 78C 678.7 78 678 78.3 678 78.7z"/>
<path style="stroke:none; fill:#ffffff" d="M 322.7 91.2C 313.4 106.3 306 121.5 306 125.3C 306 126.2 305.6 127 305 127.2C 301.9 128.2 296 172.3 296 194.3C 296 204.1 295.9 204.2 287.2 205.6L 283.5 206.2L 280.5 199.9C 278.8 196.5 277.6 193.1 277.8 192.3C 278 191.6 277.5 191 276.8 191C 276.1 190.9 274.3 189.1 272.7 186.9C 270 183 269.9 182.9 264.7 183.5C 251.1 185 241.9 187.3 240.6 189.4C 239.9 190.5 238 197.2 236.4 204.2L 233.5 217L 230.4 217C 228.7 217 225.8 217.3 224.1 217.6C 222.4 218 221 217.8 221 217.3C 221 216.3 215 205.2 211.2 199.3C 208.5 195.2 203.2 187.3 189.5 167.5C 172.8 143.2 155.5 124.7 143 117.4C 138.8 115 136.2 115.5 133.7 119.4C 131.2 123.2 131.6 124.4 136.5 128.4C 146.1 136.3 162.8 154.2 174.8 169.5C 180.1 176.3 193.8 199.8 200.1 213C 203.4 219.9 206.7 226.6 207.3 228C 208 229.4 209.6 230.6 211 230.8C 212.4 231 214 231.6 214.7 232.1C 215.4 232.8 216.1 232.7 216.5 232C 216.8 231.5 218.2 231 219.6 231C 221 231 223 230.5 224 230C 225.7 229.1 225.8 229.2 225.3 230.7C 224.7 232.2 224.9 232.3 226.2 231.3C 227 230.6 230.9 229.3 234.9 228.4C 240.2 227.2 242.5 226.2 243.6 224.4C 245.5 221.6 247.7 213.6 248.6 206.4C 248.9 203.5 249.7 200.7 250.4 200.2C 251 199.7 254.5 198.9 258.2 198.5L 264.9 197.9L 268.5 205.4C 274.8 218.7 277.7 220.1 291.1 216.1C 294.6 215 299.5 213.9 301.9 213.5C 308.4 212.4 310.3 210.1 309.6 203.7C 308.7 196.1 310.6 156.9 312.3 147C 313.8 138.1 318.5 122.2 320.1 120.5C 320.6 120 321 119 321 118.3C 321 117.6 323.7 112 327 105.8C 330.3 99.7 333 94.1 333 93.4C 333 92.6 331.9 91.8 330.5 91.4C 329.1 91.1 328 90.4 328 89.9C 328 88.1 324 89.1 322.7 91.2z"/>
<path style="stroke:none; fill:#ffffff" d="M 487.9 91.5C 487.6 91.7 482 93.1 475.3 94.6L 463.3 97.3L 462.2 100.8C 460.5 106.3 461.9 107.3 469.9 106.5C 476.6 105.8 482.4 104.7 489.3 102.9C 491.9 102.2 493 101.4 493 100C 493 99 493.5 96.9 494.2 95.5C 495.2 93.3 495.1 92.7 493.9 91.9C 492.4 91 488.7 90.7 487.9 91.5z"/>
<path style="stroke:none; fill:#ffffff" d="M 350.8 93.8C 346.9 95.4 334 115.1 327.7 129C 322.4 140.8 320.4 160.8 321.7 191.3C 322.4 207.5 323 208.8 328.4 207C 334.2 205.1 335.1 202.2 334 189.9C 333.5 184.2 333.1 177.4 333 174.8L 333 170.1L 338.8 168.4C 347.2 166 356.4 165.1 359.3 166.6C 361.8 168 364.2 174.9 367.6 190.4L 369.3 198.2L 373.3 197.7C 378.3 197 380.6 195 379.2 192.4C 378.6 191.3 376.3 184.6 374.1 177.4C 369.5 162.9 367.2 159.5 360.2 156.7C 356.6 155.3 354.7 155.1 347.7 155.9C 343.2 156.5 338 157.4 336.2 158.1C 334.4 158.7 332.6 159 332.3 158.7C 332 158.4 332.8 152.6 334 146C 335.8 136 337.2 132 341.3 123.7C 346.3 113.5 353.6 101.4 357.3 97.3C 358.3 96.1 358.9 94.7 358.5 94.1C 357.8 92.9 353.5 92.8 350.8 93.8z"/>
<path style="stroke:none; fill:#ffffff" d="M 468.2 113.7C 460 114 458.8 114.3 457.5 116.3C 456.7 117.6 455.9 119.6 455.8 120.8C 455.5 123.1 455.6 123.1 468.8 123.2C 483.4 123.4 484.4 123 485.6 117.4C 486.1 114.5 486 114.2 483 113.6C 481.2 113.3 479.2 113.1 478.6 113.2C 478 113.3 473.3 113.6 468.2 113.7z"/>
<path style="stroke:none; fill:#ffffff" d="M 82.2 117.8C 80.9 118.2 77.5 120.9 74.5 123.9L 69 129.2L 76.2 137.3C 80.2 141.7 88.8 151.6 95.3 159.4C 101.8 167.2 108.8 175.5 110.9 178C 112.9 180.5 117 186.5 120 191.5C 122.9 196.4 126.1 201.7 127.1 203.1C 134.5 213.9 151 244.4 151 247.4C 151 247.7 153.4 253 156.4 259.2C 159.3 265.4 162.9 273.2 164.3 276.5C 165.7 279.8 168.6 286.8 170.9 292C 173.2 297.2 176.7 305.8 178.9 311C 181 316.2 183.2 320.4 183.9 320.2C 184.5 320.1 185 321.2 185 322.7C 185 326.4 192 346.1 193.1 345.4C 193.6 345.1 193.7 345.5 193.4 346.3C 192.6 348.4 196.9 359.2 198.2 358.3C 198.9 357.9 199.1 358.2 198.8 359.1C 198.5 359.9 198.6 361.5 199.1 362.7C 200.1 365.5 203.9 365.7 212 363.5C 215 362.6 222.6 361.1 228.8 359.9C 235.1 358.8 242.9 357 246.3 356C 255.4 353.1 276.3 348 285.5 346.5C 289.9 345.8 295.5 344.7 298 344C 302.6 342.9 303.5 342.7 310.5 341.6C 312.7 341.3 317 340.5 320 339.8C 323 339.2 326.2 338.7 327 338.7C 327.8 338.7 329 338.3 329.6 337.9C 330.2 337.4 331.8 337.1 333.1 337.2C 334.4 337.3 337.1 336.8 339 336.2C 340.9 335.6 348.4 334.3 355.5 333.4C 362.7 332.5 368.8 331.6 369.1 331.4C 369.4 331.2 377.2 329.5 386.4 327.6C 395.6 325.6 403.5 323.8 404.1 323.4C 404.7 323.1 406.6 322.6 408.3 322.4C 410.1 322.1 413.5 321.2 416 320.4C 418.5 319.7 424.1 318.6 428.5 318C 432.9 317.5 441.5 315.6 447.5 314C 453.6 312.3 459.4 310.7 460.5 310.5C 461.6 310.3 470.8 308.1 481 305.6C 491.2 303.1 505.4 299.7 512.5 297.9C 519.7 296.2 528.2 294 531.5 292.9C 534.8 291.9 542 289.9 547.5 288.5C 553 287.1 558.9 285.2 560.7 284.3C 562.5 283.5 564.5 283 565.3 283.3C 566.1 283.6 567.1 283.6 567.5 283.2C 567.9 282.8 569.1 282.4 570.3 282.3C 571.5 282.2 576.1 281.2 580.5 280.2C 584.9 279.1 592.1 277.4 596.5 276.5C 600.9 275.6 608.3 274 613 273C 617.7 272 623.1 270.9 625 270.5C 631.8 269.3 642.6 266.8 650.5 264.4C 654.9 263.1 665.7 260.7 674.5 258.9C 683.3 257.2 691.2 255.4 692.1 255C 692.9 254.5 696.1 253.9 699.1 253.7C 702.2 253.4 706.6 252.7 709.1 252C 720.7 248.9 728.8 246.6 734 244.9C 735.4 244.5 740.8 243.2 746 242.1C 755.6 240 764.8 237.1 762 237C 761 237 760 235.2 759.2 231.8C 757.9 226.2 753.8 221 750.7 221C 748.5 221 734 224.7 720 228.9C 714.8 230.5 705.6 233 699.6 234.5C 688.3 237.3 687.1 237.1 687 232.9C 687 230.1 683.6 228 679.2 228C 672.5 228 673.6 229.4 685.1 235.5C 686.2 236 687 236.8 687 237.1C 687 237.8 681.3 239.4 675 240.6C 673.1 240.9 664.5 243.2 656 245.7C 627.8 253.8 604.6 259.9 591.5 262.5C 587.1 263.4 581.5 264.7 579 265.4C 574.5 266.7 562.3 269.5 556.5 270.5C 554.9 270.8 551 271.7 548 272.6C 545 273.4 540.7 274.5 538.5 275C 531.1 276.6 518.5 280.2 517.4 281.1C 516.8 281.6 515 281.9 513.4 281.8C 511.8 281.8 506.5 282.7 501.5 283.8C 479 289.1 455.5 294.3 445 296.4C 420.9 301.2 384.8 309.8 384 310.8C 383.7 311.2 382.7 311.5 381.8 311.6C 375.8 311.9 374.9 312.1 375.6 313.1C 376 313.8 375.6 314 374.3 313.6C 372.2 312.9 370.3 313.3 348 318C 340 319.7 328.4 321.7 322.2 322.5C 316 323.3 310.4 324.2 309.8 324.6C 309.3 324.9 306.5 325.3 303.7 325.4C 293.2 325.8 239.6 333.9 226.5 337C 224.3 337.5 220.8 338 218.8 338C 215.1 338 214.9 337.8 211.7 331.2C 209.8 327.5 208 323.2 207.6 321.6C 207.2 320 204.9 314.6 202.6 309.6C 200.2 304.6 197 297.6 195.5 294C 194 290.4 192 285.7 191 283.5C 189.9 281.3 185.4 271.6 180.9 262C 170.7 240.3 157 213.6 151.4 204.9C 149.1 201.3 145.6 195.2 143.6 191.4C 138.1 181 126.5 163.4 120.1 155.5C 116.9 151.6 113 146.5 111.5 144C 108.3 138.9 87.1001 116.9 85.5001 117.1C 85.0001 117.2 83.5 117.5 82.2 117.8zM 190 333.9C 189.9 335.2 187.1 329.4 187.1 328C 187.1 327.2 187.7 328 188.5 329.9C 189.3 331.7 190 333.5 190 333.9z"/>
<path style="stroke:none; fill:#ffffff" d="M 451.6 133.2C 450.5 137.4 450.9 141.3 452.3 140.7C 453.1 140.4 455.8 140.6 458.3 141.1C 466.3 142.5 474 142.8 474.8 141.6C 475.2 141 476 139.1 476.6 137.4L 477.7 134.3L 466.6 132.7C 452.5 130.6 452.4 130.6 451.6 133.2z"/>
<path style="stroke:none; fill:#ffffff" d="M 424 150C 424.1 157.7 425.6 174.9 426.5 177.2C 427.3 179.2 423.1 180.5 412.9 181.5L 406.4 182.2L 402.2 177.4C 399.9 174.7 398 172 398 171.3C 398 170.7 397.3 169.5 396.5 168.6C 394.4 166.5 389 152.2 389.7 150.4C 390.4 148.5 381.1 148.4 378.5 150.4C 376.7 151.7 376.7 151.9 378.4 158.1C 381.3 168.5 386.9 178.8 394.9 188.7L 398.2 192.9L 406.8 192.4C 411.7 192.1 418.6 190.8 422.9 189.5C 427 188.2 430.5 187.2 430.5 187.3C 430.6 187.4 431.4 190.2 432.4 193.5C 433.4 196.8 434.6 200 435.1 200.5C 435.5 201.1 438 207.1 440.5 213.9C 443 220.6 445.5 226.9 446 227.8C 447.7 231 451.1 242.5 452.5 249.9C 454.2 258.7 453.4 261.2 446.6 267.9C 441.8 272.6 437.9 273.9 428.8 274C 422.5 274 422.2 274.4 422.8 281.1C 423.3 286.4 426.3 287.5 436.6 286.1C 447.1 284.6 452.5 281.8 458 274.8C 466.5 264.3 467.8 254.7 462.6 242.8C 461.3 239.9 459 233.9 457.5 229.5C 456 225.1 454 220.4 453 219C 451 216.1 448.7 209.3 446.5 199.6C 445.7 195.8 444.5 192.1 444 191.5C 442.3 189.5 437.1 162 436.6 152.5C 436.4 147.5 436.1 143.4 436.1 143.3C 436 143.2 433.3 143.2 430 143.3L 424 143.5L 424 150zM 442 276.4C 442 276.7 441.6 277.2 441 277.5C 440.5 277.8 440 277.6 440 277.1C 440 276.5 440.5 276 441 276C 441.6 276 442 276.2 442 276.4z"/>
<path style="stroke:none; fill:#ffffff" d="M 449.8 150.1C 447.7 151.2 447.5 154.8 449.3 157C 450.2 158.1 452.6 158.5 459.6 158.4C 470.2 158.3 472 157.6 471.3 153.8C 470.8 151.4 470.3 151.1 465.1 150.5C 462 150.2 457.7 149.8 455.5 149.5C 453.3 149.3 450.7 149.6 449.8 150.1z"/>
<path style="stroke:none; fill:#ffffff" d="M 589 162.8C 589 163.4 590.3 166.7 591.8 170.2C 595.4 178.2 597.5 190.2 596.6 197.7C 595.4 208.4 590.3 223.6 586 229.5C 581.3 235.9 578.8 241 580.2 241C 580.9 241 585.8 239.1 591 236.8C 599.9 233 601.3 232.7 611.8 232.2C 621.8 231.8 623.2 231.9 624.4 233.5C 625.4 234.9 626.4 235.1 629.6 234.6C 631.7 234.2 634.9 233 636.5 232C 642.7 228.2 659 225.4 663.3 227.4C 666.4 228.9 665.2 225 662 223.2C 660.3 222.3 653.7 217.8 647.2 213.2C 632.5 202.7 623 192.1 623 186C 623 183.5 621.3 180 620.1 180C 619.6 180 619.5 182.9 619.7 186.5C 620.6 196.5 616.8 200.5 610.4 196.3C 607 194.1 600.3 184.1 597.5 177.1C 593.3 166.8 592.1 164.4 590.6 163C 589.7 162.3 589 162.2 589 162.8z"/>
<path style="stroke:none; fill:#ffffff" d="M 513.4 163.8C 512.5 164.4 508 173.3 508 174.5C 508 174.8 506 179.3 503.4 184.7C 497.2 197.9 493.5 209.7 492 220.7C 491.3 225.8 490.4 230 489.9 230C 488.9 230 478.5 239.9 479.1 240.4C 484.4 244.9 500.4 259.2 502.9 261.7C 506.8 265.7 510.2 267.2 513.5 266.4C 518.1 265.3 518.5 263.4 515.4 258.7C 510.9 252 510 249.4 507.4 234.7C 505.4 223.2 505.1 218.8 505.6 209.2C 506.2 195.2 508.4 181.6 511.1 174C 513.4 167.8 515 163 514.7 163C 514.6 163 514 163.4 513.4 163.8z"/>
<path style="stroke:none; fill:#ffffff" d="M 449.4 165C 448 166.4 448.8 171 450.4 171.1C 451 171.1 455 171.5 459.2 171.8C 467.3 172.6 468 172.3 468 168.1C 468 166.6 466.8 166.2 460.6 165.7C 456.6 165.3 452.7 164.8 451.9 164.5C 451.1 164.2 450 164.4 449.4 165z"/>
<path style="stroke:none; fill:#ffffff" d="M 451.8 180.4C 449.8 181.8 449.5 184.7 450.9 186.9C 451.6 188 452.2 188.1 453.2 187.2C 454 186.6 457.9 186 462 185.8C 469.3 185.5 469.5 185.4 469.2 183C 469.1 181.7 468.4 180.2 467.7 179.8C 465.7 178.5 453.7 178.9 451.8 180.4z"/>
<path style="stroke:none; fill:#ffffff" d="M 475.8 182.4C 473.4 184.2 473.5 186.7 476 187.5C 478.7 188.4 481 186.4 481 183.4C 481 180.7 478.6 180.2 475.8 182.4z"/>
<path style="stroke:none; fill:#ffffff" d="M 462.3 193.1C 458.8 193.5 455.6 194.2 455 194.5C 453.9 195.2 454.4 199.8 455.7 201.1C 456.5 201.9 468.3 200.6 472.3 199.4C 474.3 198.8 474.6 195 472.8 193.2C 471.5 191.9 471.3 191.9 462.3 193.1z"/>
<path style="stroke:none; fill:#ffffff" d="M 669.7 201.2C 673.1 205 675.4 212.4 674.7 217.5C 673.9 222.9 674.9 223.3 677.4 218.6C 678.5 216.4 680.3 214.9 682.3 214.3L 685.4 213.4L 680.8 210.7C 678.2 209.2 675.9 207.1 675.5 206.1C 674.6 203 671 199 669.3 199C 667.9 199 668 199.4 669.7 201.2z"/>
<path style="stroke:none; fill:#ffffff" d="M 467 207.9C 461.6 209.3 460.6 210 460.8 211.5C 461.3 213.9 465 217.2 466.6 216.6C 467.2 216.4 469.5 215.6 471.7 215C 477.9 213.1 479.6 211.5 478.2 208.5C 476.9 205.6 475.9 205.6 467 207.9z"/>
<path style="stroke:none; fill:#ffffff" d="M 693.6 214.9C 692.9 216 694 216.8 697.8 218C 699.3 218.4 701.3 219.1 702.3 219.5C 703.6 220 704 219.7 704 218.2C 704 215.7 703.6 215.4 698.4 214.5C 695.9 214.1 694 214.3 693.6 214.9z"/>
<path style="stroke:none; fill:#ffffff" d="M 690.3 220C 691 221.1 693.4 223.1 695.4 224.5C 699 227 699.3 227 700.6 225.3C 701.3 224.3 702 223.2 702 222.9C 702 221.7 699.6 220.4 695.4 219.2C 689.5 217.5 688.6 217.6 690.3 220z"/>
<path style="stroke:none; fill:#ffffff" d="M 476.1 222C 472.4 224.4 468 229.7 469.2 230.3C 469.4 230.4 470.5 231.1 471.8 231.8C 473.7 232.9 474.6 232.7 478.3 230.4C 480.6 228.9 482.6 227.3 482.8 226.9C 483 226.4 484.3 226.3 485.6 226.6C 488.4 227.3 488.7 226.1 486.3 223.8C 485.3 222.9 483.9 221.4 483.2 220.6C 481.5 218.5 481.2 218.5 476.1 222z"/>
<path style="stroke:none; fill:#ffffff" d="M 684 223.7C 684 225.6 690.9 231.3 692.4 230.7C 696.1 229.2 692.7 224.5 687.2 223.4C 685.4 223 684 223.2 684 223.7z"/>
<path style="stroke:none; fill:#ffffff" d="M 397.1 227.3C 396.3 228.3 396.5 230.2 397.9 234.6C 398.9 237.8 401.7 247.5 404 256C 411.5 283.8 411.4 283.4 414 284.7C 419 287.2 419 284.4 414.6 264.5C 411.1 248.5 411.2 246.7 415.7 241.1C 417.7 238.6 420 236 420.8 235.3C 422.5 233.9 434 233.8 435.7 235.2C 438.4 237.4 439.8 233.7 438.4 228.3C 437.8 226.3 437.2 226.1 430.1 226.1C 421.6 226.1 416.5 227.9 409.3 233.7L 405.1 237L 404.1 233.3C 403.5 231.2 403 229 403 228.4C 403 227.3 400.8 226 399 226C 398.6 226 397.7 226.6 397.1 227.3z"/>
<path style="stroke:none; fill:#ffffff" d="M 384.8 230.3C 383.3 230.9 381.8 232 381.6 232.7C 381.3 233.5 382.2 238.5 383.6 243.8C 385 249.1 386.6 255.3 387.1 257.5C 387.6 259.7 389 264.6 390.1 268.4C 392 274.3 392.1 275.5 390.9 277.8C 389.2 280.8 384.4 283 379.5 283C 376.3 283 375.7 282.6 374.4 279.5C 373.7 277.6 373 275.3 373 274.3C 373 273.3 371.5 268.9 369.6 264.5C 367.8 260 365.5 253.3 364.5 249.5C 363.5 245.6 362.3 242.1 361.8 241.6C 361.4 241 361 239.8 361 238.8C 361 237.4 360.2 237 357.6 237C 353.4 237 352.5 238.2 354.3 241.2C 355.1 242.5 357 248.7 358.5 255C 362.3 271.1 367.6 287.4 369.2 288.1C 373.9 290.3 381.5 292.1 381.8 291.1C 382 290.6 383.8 289.8 385.8 289.4C 390.2 288.6 393 287.3 394.8 285.1C 395.8 283.9 396.3 283.8 396.7 284.8C 397.7 287.3 401 281.4 401 276.8C 401 272 397.2 255.2 392.9 241.2C 391.3 236.1 390 231.2 390 230.4C 390 228.8 388.7 228.8 384.8 230.3z"/>
<path style="stroke:none; fill:#ffffff" d="M 559 241.7C 558.2 245.4 556.5 249.3 554.1 252.3C 550.6 257 540.8 264 537.7 264C 535.8 264 534.5 265.9 535.6 267C 537.1 268.3 551.8 266.3 555.3 264.2C 557.3 263 562.3 261.9 569 261.1C 579.6 259.8 583 258.8 583 256.8C 583 256.1 581.6 256 579.1 256.4C 571.4 257.6 565.4 252.4 563.5 243C 561.8 234.1 560.8 233.8 559 241.7z"/>
<path style="stroke:none; fill:#ffffff" d="M 622.6 237.5C 619.7 239.7 621.6 240.9 627.7 240.5C 634.1 240.1 635.4 238.9 631.5 237.2C 628.1 235.6 624.9 235.7 622.6 237.5z"/>
<path style="stroke:none; fill:#ffffff" d="M 329.9 240C 326.1 240.7 322.4 242.7 316.6 247.4L 312.9 250.3L 307.4 247.5C 303.8 245.7 300.4 244.7 297.7 244.8C 292.1 244.9 283.3 249 279.1 253.4C 277.2 255.3 275.3 256.7 274.9 256.4C 273.4 255.5 272.7 261.1 273.8 264.8C 274.3 266.9 275.3 271.6 276 275.5C 279.2 293.8 280.1 298.8 281.2 302.2C 282.2 305.6 282.7 306 285.5 306C 290 306 291.6 302.8 289.9 296.9C 289.3 294.5 287.3 286 285.5 278L 282.2 263.5L 284.2 261.3C 285.4 260 288.3 258.1 290.7 256.9C 296.1 254.3 303.3 254.9 305 258.1C 306.3 260.4 310.7 280.5 312.2 290.5C 313.6 299.7 315.9 301.6 322.7 298.8C 324.2 298.2 325.8 297.7 326.3 297.8C 327.9 298.2 326.4 286.9 322 265.7C 320.2 257.1 320.6 255.5 324.8 252.9C 334.4 246.9 338.1 246.6 341 251.2C 342.1 253 343 255.6 343 257C 343 259.4 343.9 264.2 348 282.9C 349 287.5 350.4 291.7 351.1 292.1C 352.2 292.8 357.8 292.3 358.9 291.4C 359.1 291.2 358.5 288 357.6 284.3C 356.6 280.6 355.4 273.7 354.9 269C 354.4 264.3 352.8 256.6 351.4 251.8C 348.8 243.4 348.6 243.1 344.6 241.6C 339.5 239.7 334.6 239.1 329.9 240z"/>
<path style="stroke:none; fill:#ffffff" d="M 629 242.9C 627.6 243.4 625 244.4 623.3 245.3C 620.8 246.6 617.3 247 607.5 247L 594.9 247L 590 250.7C 587.2 252.8 585 254.8 585 255.2C 585 256.9 588.3 255.9 592.3 253C 596.9 249.8 597.2 249.8 615.8 250C 624.4 250.1 627.8 249.7 630.5 248.4C 634.8 246.4 635.5 245.3 634 243.5C 632.6 241.9 632.6 241.8 629 242.9z"/>
<path style="stroke:none; fill:#ffffff" d="M 233.3 251.7C 225.6 253.2 217.5 256.9 213.9 260.4C 208.7 265.6 207.3 268.3 206.1 275.8C 203.8 290.4 213.9 308.5 228.8 316.6C 233.8 319.3 234.2 319.3 239.2 318C 250.5 315.1 266.1 303.6 270.7 294.6C 272.2 291.8 272.1 291.5 270 289.8C 266.8 287.2 265.4 287.5 263 291.5C 260.1 296.2 250.7 304.5 245.3 307C 243 308.1 239.2 309 237 309C 233.5 309 232.2 308.3 228 304.4C 225.2 301.8 223 299.2 223 298.5C 223 297.4 230.1 292 231.6 292C 233.3 292 257.2 276.8 261.3 273.1C 264.2 270.4 264.9 268 262.6 268C 261.8 268 260.9 266.9 260.6 265.6C 259.6 261.7 247.5 253 243.2 253C 242.2 253 241 252.7 240.6 252.2C 239.9 251.6 235.4 251.2 233.3 251.7zM 245.5 263.4C 247.5 264.9 248.9 266.7 248.7 267.3C 248.1 269.2 215.6 286 214.6 285C 213.1 283.5 213.6 277.7 215.3 274.3C 217.7 269.8 225.7 262.2 229.3 261.1C 234.7 259.4 241.5 260.4 245.5 263.4z"/>
</g>
</g>
</svg>